name Walk3.mot
datacolumns 19
datarows 30
range 1.61900000 1.64800000
endheader

                time	   L_ground_force_vx	   L_ground_force_vy	   L_ground_force_vz	   L_ground_force_px	   L_ground_force_py	   L_ground_force_pz	   R_ground_force_vx	   R_ground_force_vy	   R_ground_force_vz	   R_ground_force_px	   R_ground_force_py	   R_ground_force_pz	   L_ground_torque_x	   L_ground_torque_y	   L_ground_torque_z	   R_ground_torque_x	   R_ground_torque_y	   R_ground_torque_z	
          1.61900000	          0.00000000	          0.00000000	          0.00000000	          0.00000000	          0.00000000	          0.00000000	          7.28520002	        685.70380033	         53.15788885	         -0.23779577	          0.00000000	         -0.05096900	          0.00000000	          0.00000000	          0.00000000	          0.00000000	          0.69813741	          0.00000000	
          1.62000000	          0.00000000	          0.00000000	          0.00000000	          0.00000000	          0.00000000	          0.00000000	          7.48980637	        686.65119089	         53.22082498	         -0.23717563	          0.00000000	         -0.05100112	          0.00000000	          0.00000000	          0.00000000	          0.00000000	          0.67464375	          0.00000000	
          1.62100000	          0.00000000	          0.00000000	          0.00000000	          0.00000000	          0.00000000	          0.00000000	          7.71607496	        687.54535333	         53.27261926	         -0.23653915	          0.00000000	         -0.05100902	          0.00000000	          0.00000000	          0.00000000	          0.00000000	          0.64145926	          0.00000000	
          1.62200000	          0.00000000	          0.00000000	          0.00000000	          0.00000000	          0.00000000	          0.00000000	          7.93848433	        688.38405185	         53.30617414	         -0.23589277	          0.00000000	         -0.05100289	          0.00000000	          0.00000000	          0.00000000	          0.00000000	          0.60693135	          0.00000000	
          1.62300000	          0.00000000	          0.00000000	          0.00000000	          0.00000000	          0.00000000	          0.00000000	          8.12290002	        689.18082770	         53.31386484	         -0.23524669	          0.00000000	         -0.05098897	          0.00000000	          0.00000000	          0.00000000	          0.00000000	          0.58298466	          0.00000000	
          1.62400000	          0.00000000	          0.00000000	          0.00000000	          0.00000000	          0.00000000	          0.00000000	          8.25020225	        689.94661243	         53.29305846	         -0.23461703	          0.00000000	         -0.05098118	          0.00000000	          0.00000000	          0.00000000	          0.00000000	          0.58095390	          0.00000000	
          1.62500000	          0.00000000	          0.00000000	          0.00000000	          0.00000000	          0.00000000	          0.00000000	          8.33168953	        690.69813637	         53.25126888	         -0.23402600	          0.00000000	         -0.05099871	          0.00000000	          0.00000000	          0.00000000	          0.00000000	          0.60324868	          0.00000000	
          1.62600000	          0.00000000	          0.00000000	          0.00000000	          0.00000000	          0.00000000	          0.00000000	          8.40285833	        691.47651622	         53.19481103	         -0.23348710	          0.00000000	         -0.05104903	          0.00000000	          0.00000000	          0.00000000	          0.00000000	          0.64023887	          0.00000000	
          1.62700000	          0.00000000	          0.00000000	          0.00000000	          0.00000000	          0.00000000	          0.00000000	          8.49728770	        692.33657495	         53.11901913	         -0.23298349	          0.00000000	         -0.05111706	          0.00000000	          0.00000000	          0.00000000	          0.00000000	          0.67716050	          0.00000000	
          1.62800000	          0.00000000	          0.00000000	          0.00000000	          0.00000000	          0.00000000	          0.00000000	          8.62749974	        693.30581836	         53.02175495	         -0.23247659	          0.00000000	         -0.05117767	          0.00000000	          0.00000000	          0.00000000	          0.00000000	          0.70367805	          0.00000000	
          1.62900000	          0.00000000	          0.00000000	          0.00000000	          0.00000000	          0.00000000	          0.00000000	          8.78397560	        694.37325048	         52.91920603	         -0.23193796	          0.00000000	         -0.05121588	          0.00000000	          0.00000000	          0.00000000	          0.00000000	          0.71982450	          0.00000000	
          1.63000000	          0.00000000	          0.00000000	          0.00000000	          0.00000000	          0.00000000	          0.00000000	          8.94113801	        695.51025926	         52.83873777	         -0.23136656	          0.00000000	         -0.05123057	          0.00000000	          0.00000000	          0.00000000	          0.00000000	          0.73397592	          0.00000000	
          1.63100000	          0.00000000	          0.00000000	          0.00000000	          0.00000000	          0.00000000	          0.00000000	          9.07235838	        696.68183522	         52.80137602	         -0.23078424	          0.00000000	         -0.05122832	          0.00000000	          0.00000000	          0.00000000	          0.00000000	          0.75263713	          0.00000000	
          1.63200000	          0.00000000	          0.00000000	          0.00000000	          0.00000000	          0.00000000	          0.00000000	          9.16856231	        697.85305356	         52.80902770	         -0.23021736	          0.00000000	         -0.05121529	          0.00000000	          0.00000000	          0.00000000	          0.00000000	          0.77230589	          0.00000000	
          1.63300000	          0.00000000	          0.00000000	          0.00000000	          0.00000000	          0.00000000	          0.00000000	          9.24218172	        698.99294125	         52.83475539	         -0.22967512	          0.00000000	         -0.05119656	          0.00000000	          0.00000000	          0.00000000	          0.00000000	          0.78345698	          0.00000000	
          1.63400000	          0.00000000	          0.00000000	          0.00000000	          0.00000000	          0.00000000	          0.00000000	          9.32042552	        700.07370395	         52.83411910	         -0.22914271	          0.00000000	         -0.05118353	          0.00000000	          0.00000000	          0.00000000	          0.00000000	          0.78027478	          0.00000000	
          1.63500000	          0.00000000	          0.00000000	          0.00000000	          0.00000000	          0.00000000	          0.00000000	          9.43579000	        701.08652364	         52.78043903	         -0.22859472	          0.00000000	         -0.05118912	          0.00000000	          0.00000000	          0.00000000	          0.00000000	          0.76383335	          0.00000000	
          1.63600000	          0.00000000	          0.00000000	          0.00000000	          0.00000000	          0.00000000	          0.00000000	          9.60848715	        702.06174889	         52.68250988	         -0.22801608	          0.00000000	         -0.05121802	          0.00000000	          0.00000000	          0.00000000	          0.00000000	          0.73978025	          0.00000000	
          1.63700000	          0.00000000	          0.00000000	          0.00000000	          0.00000000	          0.00000000	          0.00000000	          9.83383658	        703.06014175	         52.56996951	         -0.22741666	          0.00000000	         -0.05126190	          0.00000000	          0.00000000	          0.00000000	          0.00000000	          0.71389224	          0.00000000	
          1.63800000	          0.00000000	          0.00000000	          0.00000000	          0.00000000	          0.00000000	          0.00000000	         10.09256911	        704.15151798	         52.46938419	         -0.22682754	          0.00000000	         -0.05129710	          0.00000000	          0.00000000	          0.00000000	          0.00000000	          0.68850158	          0.00000000	
          1.63900000	          0.00000000	          0.00000000	          0.00000000	          0.00000000	          0.00000000	          0.00000000	         10.37217172	        705.38850440	         52.38990950	         -0.22627370	          0.00000000	         -0.05130399	          0.00000000	          0.00000000	          0.00000000	          0.00000000	          0.66596569	          0.00000000	
          1.64000000	          0.00000000	          0.00000000	          0.00000000	          0.00000000	          0.00000000	          0.00000000	         10.67585543	        706.77064109	         52.32452466	         -0.22574875	          0.00000000	         -0.05129445	          0.00000000	          0.00000000	          0.00000000	          0.00000000	          0.65218267	          0.00000000	
          1.64100000	          0.00000000	          0.00000000	          0.00000000	          0.00000000	          0.00000000	          0.00000000	         11.00832183	        708.24761462	         52.25794028	         -0.22522761	          0.00000000	         -0.05130375	          0.00000000	          0.00000000	          0.00000000	          0.00000000	          0.65202917	          0.00000000	
          1.64200000	          0.00000000	          0.00000000	          0.00000000	          0.00000000	          0.00000000	          0.00000000	         11.35669770	        709.75009125	         52.17275020	         -0.22470221	          0.00000000	         -0.05136217	          0.00000000	          0.00000000	          0.00000000	          0.00000000	          0.66309258	          0.00000000	
          1.64300000	          0.00000000	          0.00000000	          0.00000000	          0.00000000	          0.00000000	          0.00000000	         11.69877117	        711.19853159	         52.05956970	         -0.22419092	          0.00000000	         -0.05147478	          0.00000000	          0.00000000	          0.00000000	          0.00000000	          0.67474629	          0.00000000	
          1.64400000	          0.00000000	          0.00000000	          0.00000000	          0.00000000	          0.00000000	          0.00000000	         12.02692644	        712.53193645	         51.92929948	         -0.22371067	          0.00000000	         -0.05160826	          0.00000000	          0.00000000	          0.00000000	          0.00000000	          0.67501763	          0.00000000	
          1.64500000	          0.00000000	          0.00000000	          0.00000000	          0.00000000	          0.00000000	          0.00000000	         12.34968848	        713.75930162	         51.80880256	         -0.22325250	          0.00000000	         -0.05170799	          0.00000000	          0.00000000	          0.00000000	          0.00000000	          0.66084714	          0.00000000	
          1.64600000	          0.00000000	          0.00000000	          0.00000000	          0.00000000	          0.00000000	          0.00000000	         12.67797851	        714.95547210	         51.72114403	         -0.22278807	          0.00000000	         -0.05174335	          0.00000000	          0.00000000	          0.00000000	          0.00000000	          0.64032556	          0.00000000	
          1.64700000	          0.00000000	          0.00000000	          0.00000000	          0.00000000	          0.00000000	          0.00000000	         13.02253623	        716.20540365	         51.67161819	         -0.22229210	          0.00000000	         -0.05172866	          0.00000000	          0.00000000	          0.00000000	          0.00000000	          0.62387836	          0.00000000	
          1.64800000	          0.00000000	          0.00000000	          0.00000000	          0.00000000	          0.00000000	          0.00000000	         13.38947651	        717.56000494	         51.64345516	         -0.22176086	          0.00000000	         -0.05169792	          0.00000000	          0.00000000	          0.00000000	          0.00000000	          0.61619060	          0.00000000	
